<?xml version="1.0" standalone="no"?>
<!DOCTYPE svg PUBLIC "-//W3C//DTD SVG 20010904//EN"
 "http://www.w3.org/TR/2001/REC-SVG-20010904/DTD/svg10.dtd">
<svg version="1.0" xmlns="http://www.w3.org/2000/svg"
 width="200.000000pt" height="200.000000pt" viewBox="0 0 200.000000 200.000000"
 preserveAspectRatio="xMidYMid meet">

<g transform="translate(0.000000,200.000000) scale(0.100000,-0.100000)"
fill="#000000" stroke="none">
<path d="M277 1272 c-48 -48 -87 -91 -87 -94 0 -14 41 -29 62 -22 12 3 42 26
68 50 l46 43 74 -74 75 -75 -27 -26 -26 -26 -45 46 c-25 25 -50 46 -55 46 -11
0 -47 -39 -41 -44 80 -84 292 -296 295 -296 2 0 4 69 4 153 l0 153 -125 125
c-69 68 -127 125 -128 126 -2 1 -42 -37 -90 -85z"/>
<path d="M100 1035 l0 -160 123 -123 c67 -67 125 -122 128 -122 4 0 46 38 94
84 93 90 104 116 45 116 -23 0 -44 -12 -80 -46 -40 -37 -52 -44 -67 -35 -19
11 -114 107 -127 129 -8 14 19 52 38 52 6 0 32 -21 58 -47 47 -46 48 -46 68
-28 11 10 20 23 20 29 0 6 -67 79 -150 161 l-150 150 0 -160z"/>
<path d="M713 1105 c-19 -13 -23 -26 -23 -69 0 -50 2 -55 46 -94 33 -29 45
-47 42 -63 -5 -36 -26 -34 -30 3 -2 28 -7 34 -30 36 -27 3 -28 1 -28 -37 0
-52 27 -81 74 -81 51 0 80 40 73 100 -4 37 -12 51 -46 80 -29 25 -41 43 -41
63 0 33 17 36 22 5 2 -17 11 -24 31 -26 25 -3 27 -1 27 31 0 19 -6 40 -14 46
-25 21 -79 24 -103 6z"/>
<path d="M904 1110 c-35 -14 -46 -59 -42 -170 3 -93 5 -103 27 -121 30 -24 72
-24 102 0 20 16 23 29 27 114 5 112 -8 164 -45 178 -29 11 -41 11 -69 -1z m46
-150 c0 -67 -4 -110 -10 -110 -6 0 -10 43 -10 110 0 67 4 110 10 110 6 0 10
-43 10 -110z"/>
<path d="M1477 1100 c-27 -21 -27 -22 -27 -145 0 -117 1 -125 22 -139 59 -42
128 -3 128 72 0 40 -1 42 -30 42 -28 0 -30 -2 -30 -40 0 -29 -4 -40 -15 -40
-13 0 -15 16 -13 108 3 107 18 142 28 65 4 -33 9 -38 30 -38 23 0 25 4 28 46
3 51 -14 75 -64 85 -21 4 -37 0 -57 -16z"/>
<path d="M1050 960 l0 -150 55 0 c52 0 55 1 55 25 0 18 -7 28 -25 35 -25 9
-25 11 -25 125 l0 115 -30 0 -30 0 0 -150z"/>
<path d="M1140 1080 c0 -23 4 -30 20 -30 19 0 20 -7 20 -120 l0 -120 35 0 35
0 0 120 c0 113 1 120 20 120 16 0 20 7 20 30 l0 30 -75 0 -75 0 0 -30z"/>
<path d="M1310 961 l0 -151 56 0 c54 0 55 0 52 28 -2 19 -9 28 -25 30 -31 5
-33 61 -3 69 13 3 20 14 20 29 0 17 -6 24 -20 24 -32 0 -27 48 6 60 19 7 25
16 22 33 -3 19 -10 22 -55 25 l-53 3 0 -150z"/>
<path d="M1637 1103 c-4 -3 -7 -71 -7 -150 l0 -143 35 0 35 0 0 60 c0 33 4 60
10 60 6 0 10 -27 10 -60 l0 -60 35 0 35 0 0 151 0 150 -32 -3 c-32 -3 -33 -4
-36 -55 -4 -70 -22 -68 -22 2 0 54 -1 55 -28 55 -16 0 -32 -3 -35 -7z"/>
<path d="M1330 720 c0 -27 5 -50 10 -50 6 0 10 11 10 25 0 14 4 25 8 25 5 0
15 -11 22 -25 23 -42 40 -31 40 25 0 28 -4 50 -10 50 -5 0 -10 -15 -10 -32
l-1 -33 -27 33 c-15 18 -30 32 -34 32 -5 0 -8 -22 -8 -50z"/>
<path d="M1450 715 c0 -52 1 -55 25 -55 14 0 25 5 25 10 0 6 -7 10 -15 10 -20
0 -19 20 3 36 16 13 16 13 0 14 -10 0 -18 6 -18 14 0 8 8 17 18 19 10 3 6 5
-10 6 -27 1 -28 0 -28 -54z"/>
<path d="M1530 765 c0 -3 6 -14 12 -25 10 -16 10 -24 0 -41 -17 -27 -6 -39 12
-14 13 18 14 18 25 -4 17 -31 25 -20 10 13 -9 20 -9 32 -1 51 6 14 8 25 3 25
-5 0 -12 -8 -16 -17 -6 -17 -7 -17 -19 0 -13 16 -26 23 -26 12z"/>
<path d="M1630 725 c0 -34 5 -47 20 -55 36 -19 60 3 60 55 0 57 -18 59 -22 3
-2 -30 -8 -43 -18 -43 -10 0 -16 13 -18 43 -4 56 -22 54 -22 -3z"/>
<path d="M1735 753 c-4 -12 1 -24 14 -35 25 -20 27 -38 4 -38 -12 0 -14 -3 -7
-10 14 -14 44 -2 44 18 0 9 -10 26 -22 39 -18 20 -19 23 -5 23 9 0 17 5 17 10
0 17 -38 11 -45 -7z"/>
</g>
</svg>
